<?xml version="1.0" encoding="UTF-8"?>
<svg id="rotor_negro_verde" data-name="rotor negro verde" xmlns="http://www.w3.org/2000/svg" viewBox="0 0 585 164">
  <defs>
    <style>
      .cls-1 {
        fill: #000;
      }

      .cls-1, .cls-2 {
        stroke-width: 0px;
      }

      .cls-2 {
        fill: #1f602b;
      }
    </style>
  </defs>
  <path class="cls-1" d="M3.52,91.9c3.17-7.32,5.94-13.92,8.31-19.79,2.36-5.87,4.97-12.67,7.82-20.41,2.85-7.74,5.75-15.91,8.71-24.5,2.96-8.59,5.27-15.43,6.91-20.51,5.16.12,9.34.19,12.55.19s7.42-.09,12.26-.28c4.84-.19,9.54-.28,14.07-.28,5.32,0,10,.21,14.03.63,3.02.29,5.67.89,7.93,1.81,2.26.91,4.05,2.03,5.37,3.34,1.32,1.31,2.3,2.78,2.94,4.4.64,1.62.92,3.53.86,5.71-.06,2.18-.5,4.53-1.31,7.02-.91,2.79-2.11,5.4-3.61,7.83-1.5,2.43-3.36,4.72-5.57,6.87-2.22,2.14-4.73,3.99-7.55,5.55-2.82,1.56-6.57,3.15-11.26,4.78l.67,7.93c.2,2.21.45,4.46.74,6.74l2.42,18.29c.12.79.28,2.35.48,4.68-6.84-.08-11.44-.12-13.81-.12-2.99,0-7.92.04-14.76.12.04-2.16.13-6.18.29-12.05.09-2.46.1-4.35.03-5.68-.04-2.95-.17-7.1-.4-12.42l-.7-17.67c2.11.42,4.25.63,6.41.63,3.04,0,5.94-.46,8.72-1.37,2.77-.91,5.11-2.33,7-4.24,1.89-1.91,3.18-3.93,3.87-6.06.58-1.79.61-3.36.1-4.71-.52-1.35-1.7-2.36-3.54-3.03-1.84-.66-4.91-1-9.19-1-1.46,0-2.98.03-4.56.09-1.58.06-3.42.11-5.51.16-3.31,8.53-7.16,18.94-11.56,31.21-4.4,12.28-8.58,24.33-12.54,36.14-6.93-.08-11.44-.12-13.52-.12-2.42,0-6.79.04-13.1.12Z"/>
  <path class="cls-1" d="M150.85,26.54c5.16,0,9.87.79,14.12,2.37,4.25,1.58,7.54,3.86,9.86,6.84,2.32,2.98,3.62,6.45,3.88,10.42.27,3.98-.34,8.25-1.83,12.83-1.45,4.46-3.52,8.69-6.22,12.7-2.7,4.02-6.28,7.78-10.76,11.3-4.47,3.52-9.56,6.15-15.27,7.9-5.71,1.75-11.43,2.62-17.18,2.62-5.29,0-10.11-.77-14.48-2.31-4.37-1.54-7.71-3.79-10.01-6.74-2.31-2.95-3.61-6.49-3.92-10.61-.3-4.12.28-8.45,1.75-12.98,1.47-4.54,3.68-8.87,6.62-12.98,2.94-4.12,6.68-7.82,11.23-11.11,4.54-3.29,9.66-5.82,15.36-7.59,5.69-1.77,11.31-2.65,16.84-2.65ZM144.45,44.89c-2.66,0-5.26.69-7.79,2.06-2.53,1.37-4.75,3.38-6.67,6.02-1.92,2.64-3.39,5.53-4.4,8.65-1.49,4.58-1.48,8.08.01,10.52,1.5,2.44,3.97,3.65,7.43,3.65,2.62,0,5.2-.7,7.73-2.09,2.53-1.39,4.77-3.45,6.72-6.18,1.95-2.72,3.43-5.65,4.44-8.77.84-2.58,1.18-4.91,1.02-6.99-.16-2.08-.98-3.74-2.47-4.99-1.49-1.25-3.5-1.87-6.04-1.87Z"/>
  <path class="cls-1" d="M227.84,73.54c-1.89,3.5-3.64,6.91-5.26,10.24l-3.85,7.62c-4.42.91-7.82,1.5-10.21,1.75-2.39.25-4.67.37-6.83.37-3.54,0-6.58-.3-9.13-.9-2.55-.6-4.48-1.71-5.79-3.31-1.31-1.6-1.96-3.44-1.95-5.53.01-2.08.39-4.28,1.15-6.62.14-.42.4-1.16.78-2.22.38-1.06,1.3-3.42,2.74-7.09l8.38-21.6h-9.73c1.14-2.87,2.56-6.66,4.25-11.36l2.07-5.8h10.34c.87-1.91,2.54-6.1,5.01-12.55l11.39-2.18c2.08-.38,6.56-1.33,13.43-2.87-2.07,5.45-4.18,11.32-6.35,17.6h14.23c-3.15,8.66-5.17,14.38-6.08,17.17h-14.36l-5.82,15.61c-.84,2.33-1.37,3.83-1.59,4.5-.65,2-.97,3.66-.97,4.99,0,1.33.47,2.29,1.38,2.87.91.58,2.04.87,3.37.87,1,0,2.06-.07,3.19-.22,1.13-.14,3.19-.59,6.18-1.34Z"/>
  <path class="cls-1" d="M288.25,26.54c5.16,0,9.87.79,14.12,2.37,4.25,1.58,7.54,3.86,9.86,6.84,2.32,2.98,3.62,6.45,3.88,10.42.27,3.98-.34,8.25-1.83,12.83-1.45,4.46-3.52,8.69-6.22,12.7-2.7,4.02-6.28,7.78-10.76,11.3-4.47,3.52-9.56,6.15-15.27,7.9-5.71,1.75-11.43,2.62-17.18,2.62-5.29,0-10.11-.77-14.48-2.31-4.37-1.54-7.71-3.79-10.01-6.74-2.31-2.95-3.61-6.49-3.92-10.61-.3-4.12.28-8.45,1.75-12.98,1.47-4.54,3.68-8.87,6.62-12.98,2.94-4.12,6.68-7.82,11.23-11.11,4.54-3.29,9.66-5.82,15.36-7.59,5.69-1.77,11.31-2.65,16.84-2.65ZM281.85,44.89c-2.66,0-5.26.69-7.79,2.06-2.53,1.37-4.75,3.38-6.67,6.02-1.92,2.64-3.39,5.53-4.4,8.65-1.49,4.58-1.48,8.08.01,10.52,1.5,2.44,3.97,3.65,7.43,3.65,2.62,0,5.2-.7,7.73-2.09,2.53-1.39,4.77-3.45,6.72-6.18,1.95-2.72,3.43-5.65,4.44-8.77.84-2.58,1.18-4.91,1.02-6.99-.16-2.08-.98-3.74-2.47-4.99s-3.5-1.87-6.04-1.87Z"/>
  <path class="cls-2" d="M333.5,46.33c2.13-4.12,3.55-6.96,4.27-8.52.72-1.56,1.84-4,3.38-7.33,12.84-2.62,23.56-3.93,32.18-3.93,4.91,0,9.23.55,12.95,1.65,3.72,1.1,6.33,2.88,7.82,5.34,1.49,2.46,1.5,5.97,0,10.55-.76,2.33-2.77,7.58-6.04,15.73-3.27,8.16-7.23,18.85-11.86,32.09-4.06-.08-8.1-.12-12.14-.12s-8.09.04-12.53.12c2.06-4.58,5.76-14.03,11.1-28.34-1.82.75-3.23,1.29-4.23,1.62-1,.34-2.73.83-5.19,1.5-2.46.67-4.4,1.23-5.81,1.69-1.41.46-2.71,1.04-3.87,1.75-1.17.71-2.07,1.44-2.7,2.18-.64.75-1.1,1.58-1.4,2.5-.46,1.41-.29,2.62.51,3.62.8,1,2.43,1.5,4.88,1.5.87,0,1.83-.07,2.88-.22,1.04-.14,2.54-.51,4.47-1.09-2.25,3.21-5.21,7.89-8.87,14.05-3.77.58-7.26.87-10.46.87-5.16,0-9.22-.72-12.19-2.15-2.97-1.44-4.86-3.76-5.67-6.96-.81-3.2-.7-6.41.35-9.61.63-1.96,1.6-3.87,2.89-5.74,1.3-1.87,2.96-3.7,5-5.49,2.04-1.79,4.24-3.32,6.61-4.59,2.37-1.27,5.43-2.47,9.18-3.59,3.76-1.12,8.39-2.18,13.92-3.18,2.3-.42,4.43-.86,6.39-1.34s3.39-.89,4.28-1.25c.88-.35,1.64-.77,2.28-1.25.63-.48,1.14-.98,1.52-1.5.38-.52.66-1.07.85-1.65.51-1.58.24-2.8-.81-3.65s-2.87-1.28-5.45-1.28c-7.16,0-16.65,2.02-28.48,6.06Z"/>
  <path class="cls-2" d="M390.17,91.9l10.94-27.72,5.8-15.92c.97-2.87,1.95-5.81,2.92-8.8.99-3.04,2.17-6.8,3.55-11.3,5.01.08,8.99.12,11.95.12,3.45,0,7.44-.04,11.96-.12l-2.55,7.05c2.22-1.83,3.99-3.19,5.32-4.09,1.33-.89,2.78-1.71,4.35-2.43s3.14-1.27,4.71-1.62c1.57-.35,3.15-.53,4.73-.53,1.5,0,3.1.21,4.79.62-1.43,4.54-2.54,8.28-3.34,11.24l-2.69,9.61c-2.07-.66-4.1-1-6.1-1-2.5,0-4.77.36-6.81,1.09-2.05.73-4.01,1.83-5.88,3.31-1.87,1.48-3.58,3.32-5.13,5.52-1.55,2.21-3.27,5.7-5.15,10.49s-3.83,10.26-5.83,16.42c-.7,2.17-1.49,4.85-2.37,8.05-4.01-.08-8.06-.12-12.14-.12s-8.38.04-13.03.12Z"/>
  <path class="cls-2" d="M447.65,99.63c4.77,1.83,9.08,3.11,12.92,3.84s7.28,1.09,10.32,1.09c2.21,0,4.28-.24,6.22-.72,1.95-.48,3.57-1.07,4.89-1.78,1.31-.71,2.53-1.6,3.65-2.69,1.12-1.08,2.11-2.29,2.95-3.62.85-1.33,1.64-2.87,2.37-4.62.73-1.75,1.66-4.16,2.79-7.24-2.1,1.46-3.88,2.62-5.35,3.5-1.47.87-3.21,1.72-5.22,2.53s-4.12,1.44-6.32,1.87c-2.2.44-4.45.66-6.74.66-5.29,0-9.65-1.23-13.1-3.68-3.45-2.46-5.49-5.89-6.14-10.3-.65-4.41-.14-9.18,1.52-14.29,1.96-6.03,4.86-11.49,8.68-16.36,3.83-4.87,8.38-8.99,13.65-12.36,5.27-3.37,10.61-5.7,16.02-6.99,5.41-1.29,11.27-1.93,17.59-1.93,3.62,0,7.65.22,12.1.66,4.45.44,10.46,1.38,18.01,2.84l-8.17,20.6-8.63,22.6c-.61,1.63-1.08,2.96-1.42,4l-7.09,20.29c-.92,2.58-2.03,5.03-3.33,7.37-1.15,2.12-2.56,4.1-4.24,5.93-1.68,1.83-3.53,3.43-5.56,4.81-2.23,1.5-4.58,2.68-7.02,3.56-2.5.91-5.35,1.66-8.53,2.25-3.43.58-6.92.87-10.46.87-2,0-4.42-.09-7.27-.28-2.85-.19-5.75-.47-8.68-.84-2.94-.37-5.45-.77-7.54-1.19-2.09-.42-4.71-1.02-7.87-1.81l2.24-8.24c.47-1.58,1.38-5.01,2.72-10.3ZM508.01,45.64c-2.41-.5-4.63-.75-6.67-.75-3.74,0-7.2.72-10.39,2.16-3.19,1.44-5.99,3.59-8.41,6.44-2.42,2.86-4.13,5.83-5.14,8.91-.73,2.25-1.02,4.34-.85,6.26.16,1.92.98,3.43,2.45,4.54,1.47,1.11,3.22,1.66,5.25,1.66,2.99,0,6-1.09,9.03-3.25,3.03-2.17,5.59-5.13,7.68-8.88,2.09-3.75,4.44-9.45,7.05-17.08Z"/>
  <g>
    <path class="cls-1" d="M75.26,147.28c-.3.57-.7,1.37-1.2,2.39-.5,1.02-.87,1.81-1.11,2.38-2.18.31-4.08.47-5.71.47s-2.97-.2-4.2-.59c-1.23-.39-2.26-1.04-3.1-1.94-.84-.9-1.31-1.95-1.4-3.17-.09-1.22.11-2.57.6-4.08.57-1.76,1.41-3.34,2.52-4.74,1.11-1.4,2.43-2.57,3.97-3.51,1.53-.94,3.1-1.61,4.7-2.01,1.6-.4,3.18-.6,4.74-.6,1.44,0,3.16.18,5.15.55l-.37,1.22c-.16.53-.32,1.12-.48,1.76l-.44,1.66c-1.05-.27-1.91-.46-2.58-.55-.67-.1-1.31-.15-1.91-.15-1.31,0-2.58.26-3.8.79s-2.29,1.29-3.22,2.29c-.93,1-1.59,2.11-1.98,3.32-.36,1.11-.42,2.06-.17,2.85s.73,1.4,1.45,1.84c.72.43,1.71.65,2.97.65.69,0,1.46-.06,2.31-.17.85-.11,1.93-.33,3.26-.65Z"/>
    <path class="cls-1" d="M81.12,141.5c.5-.96.83-1.62,1-1.99.17-.36.43-.93.79-1.71,3-.61,5.5-.92,7.51-.92,1.15,0,2.15.13,3.02.39.87.26,1.48.67,1.82,1.24.35.57.35,1.39,0,2.46-.18.54-.65,1.77-1.41,3.67-.76,1.9-1.69,4.4-2.77,7.49-.95-.02-1.89-.03-2.83-.03s-1.89,0-2.92.03c.48-1.07,1.34-3.27,2.59-6.61-.42.18-.76.3-.99.38s-.64.19-1.21.35c-.57.16-1.02.29-1.36.39s-.63.24-.9.41c-.27.17-.48.34-.63.51-.15.17-.26.37-.33.58-.11.33-.07.61.12.84.19.23.57.35,1.14.35.2,0,.43-.02.67-.05.24-.03.59-.12,1.04-.25-.52.75-1.21,1.84-2.07,3.28-.88.14-1.69.2-2.44.2-1.2,0-2.15-.17-2.84-.5-.69-.34-1.14-.87-1.33-1.62-.19-.75-.16-1.5.08-2.24.15-.46.37-.9.67-1.34s.69-.86,1.17-1.28c.47-.42.99-.77,1.54-1.07.55-.29,1.27-.57,2.14-.84.88-.26,1.96-.51,3.25-.74.53-.1,1.03-.2,1.49-.31.46-.11.79-.21,1-.29.2-.08.38-.18.53-.29.15-.11.27-.23.35-.35.09-.12.16-.25.2-.39.12-.37.06-.65-.19-.85-.25-.2-.67-.3-1.27-.3-1.67,0-3.89.47-6.65,1.41Z"/>
    <path class="cls-1" d="M94.32,152.13l1.28-3.13,4.1-10.89,2.06-5.86c1.35.02,2.36.03,3.04.03.88,0,1.87,0,2.94-.03l-1.79,4.47-4.11,11.01-1.54,4.4c-1.04,0-1.97-.01-2.81-.01h-3.17Z"/>
    <path class="cls-1" d="M103.5,152.13c.52-1.19.94-2.16,1.25-2.93.32-.77.7-1.75,1.15-2.94.45-1.2.94-2.52,1.45-3.96.52-1.45,1.1-3.13,1.75-5.04,1.26.02,2.26.03,3.02.03.69,0,1.69-.01,2.98-.03-.76,1.84-1.41,3.45-1.93,4.84-.53,1.39-1.05,2.86-1.58,4.41-.93,2.76-1.56,4.63-1.89,5.62-1.15-.02-2.14-.03-2.97-.03s-1.91,0-3.25.03ZM109.86,135.4c.43-1.16.76-2.07.98-2.74.06-.19.14-.46.24-.79,1.17.02,2.15.03,2.95.03,1.1,0,2.06,0,2.89-.03-.13.3-.23.55-.3.76l-.67,1.81c-.11.27-.22.59-.34.96-.96-.02-1.87-.03-2.76-.03s-1.91,0-2.98.03Z"/>
    <path class="cls-1" d="M129.3,152.13c-1.03-.02-1.89-.03-2.58-.03-.78,0-1.72,0-2.84.03l.68-1.85c-.5.37-.93.67-1.28.9-.35.23-.79.45-1.3.66-.51.21-1.04.38-1.59.49-.55.12-1.09.17-1.64.17-.93,0-1.75-.17-2.45-.51-.7-.34-1.23-.82-1.6-1.45-.37-.63-.56-1.37-.56-2.23,0-.86.15-1.75.45-2.67.43-1.31,1.1-2.59,2.02-3.85.92-1.25,1.92-2.24,2.98-2.96,1.07-.72,2.17-1.22,3.31-1.52,1.14-.3,2.32-.44,3.53-.44.81,0,1.72.07,2.76.22.45-1.16,1.03-2.77,1.73-4.85,1.19.02,2.16.03,2.92.03.98,0,1.97,0,2.98-.03-1.22,2.89-2.61,6.4-4.17,10.56-1.56,4.16-2.68,7.26-3.35,9.32ZM127.76,140.89c-.48-.12-.95-.17-1.4-.17-.94,0-1.81.18-2.59.55s-1.47.93-2.08,1.7c-.61.77-1.03,1.53-1.27,2.28-.18.56-.25,1.07-.19,1.52s.24.81.57,1.07c.33.26.74.39,1.25.39.53,0,1.07-.15,1.61-.45.54-.3,1.04-.74,1.51-1.32.47-.58.88-1.28,1.24-2.08.36-.8.81-1.97,1.35-3.49Z"/>
    <path class="cls-1" d="M137.4,141.5c.5-.96.83-1.62,1-1.99.17-.36.43-.93.79-1.71,3-.61,5.5-.92,7.51-.92,1.15,0,2.15.13,3.02.39.87.26,1.48.67,1.82,1.24.35.57.35,1.39,0,2.46-.18.54-.65,1.77-1.41,3.67-.76,1.9-1.69,4.4-2.77,7.49-.95-.02-1.89-.03-2.83-.03s-1.89,0-2.92.03c.48-1.07,1.34-3.27,2.59-6.61-.42.18-.76.3-.99.38s-.64.19-1.21.35c-.57.16-1.02.29-1.36.39s-.63.24-.9.41c-.27.17-.48.34-.63.51-.15.17-.26.37-.33.58-.11.33-.07.61.12.84.19.23.57.35,1.14.35.2,0,.43-.02.67-.05.24-.03.59-.12,1.04-.25-.52.75-1.21,1.84-2.07,3.28-.88.14-1.69.2-2.44.2-1.2,0-2.15-.17-2.84-.5-.69-.34-1.14-.87-1.33-1.62-.19-.75-.16-1.5.08-2.24.15-.46.37-.9.67-1.34s.69-.86,1.17-1.28c.47-.42.99-.77,1.54-1.07.55-.29,1.27-.57,2.14-.84.88-.26,1.96-.51,3.25-.74.53-.1,1.03-.2,1.49-.31.46-.11.79-.21,1-.29.2-.08.38-.18.53-.29.15-.11.27-.23.35-.35.09-.12.16-.25.2-.39.12-.37.06-.65-.19-.85-.25-.2-.67-.3-1.27-.3-1.67,0-3.89.47-6.65,1.41Z"/>
    <path class="cls-1" d="M167.04,152.13c-1.03-.02-1.89-.03-2.58-.03-.78,0-1.72,0-2.84.03l.68-1.85c-.5.37-.93.67-1.28.9-.35.23-.79.45-1.3.66-.51.21-1.04.38-1.59.49-.55.12-1.09.17-1.64.17-.93,0-1.75-.17-2.45-.51-.7-.34-1.23-.82-1.6-1.45-.37-.63-.56-1.37-.56-2.23,0-.86.15-1.75.45-2.67.43-1.31,1.1-2.59,2.02-3.85.92-1.25,1.92-2.24,2.98-2.96,1.07-.72,2.17-1.22,3.31-1.52,1.14-.3,2.32-.44,3.53-.44.81,0,1.72.07,2.76.22.45-1.16,1.03-2.77,1.73-4.85,1.19.02,2.16.03,2.92.03.98,0,1.97,0,2.98-.03-1.22,2.89-2.61,6.4-4.17,10.56-1.56,4.16-2.68,7.26-3.35,9.32ZM165.5,140.89c-.48-.12-.95-.17-1.4-.17-.94,0-1.81.18-2.59.55s-1.47.93-2.08,1.7c-.61.77-1.03,1.53-1.27,2.28-.18.56-.25,1.07-.19,1.52s.24.81.57,1.07c.33.26.74.39,1.25.39.53,0,1.07-.15,1.61-.45.54-.3,1.04-.74,1.51-1.32.47-.58.88-1.28,1.24-2.08.36-.8.81-1.97,1.35-3.49Z"/>
    <path class="cls-1" d="M177.98,152.13c.93-2.21,1.66-3.98,2.17-5.32.76-1.98,1.71-4.55,2.85-7.69.87-2.41,1.47-4.13,1.81-5.17l.55-1.7c1.13.03,2.1.04,2.93.04s1.85-.02,3.15-.07c1.3-.04,2.53-.07,3.66-.07,1.3,0,2.42.08,3.35.23.93.15,1.74.47,2.43.96.69.48,1.2,1.12,1.51,1.91.32.79.46,1.71.41,2.76-.04,1.05-.24,2.14-.61,3.26-.36,1.1-.82,2.15-1.38,3.17-.56,1.02-1.19,1.93-1.87,2.75-.68.81-1.4,1.52-2.15,2.1-.75.59-1.55,1.09-2.4,1.51-.64.31-1.25.55-1.85.73-.6.18-1.39.32-2.37.42-1.09.12-2.3.17-3.63.17l-5.87-.04c-.55,0-1.46.01-2.71.04ZM185.7,147.75c.52.05,1.07.07,1.65.07.99,0,1.9-.09,2.73-.26.83-.17,1.64-.55,2.41-1.12.77-.57,1.45-1.31,2.02-2.21.57-.9,1.01-1.82,1.32-2.76.38-1.16.48-2.13.32-2.92-.16-.79-.54-1.34-1.13-1.65-.59-.31-1.49-.47-2.68-.47-.7,0-1.53.03-2.5.09l-4.14,11.23Z"/>
    <path class="cls-1" d="M217.15,152.13c-1.1-.02-2.02-.03-2.76-.03-.91,0-1.83,0-2.76.03l.63-1.99c-.49.43-.89.76-1.21.98-.31.22-.64.41-.98.58-.34.17-.71.31-1.1.43-.39.12-.83.22-1.32.29-.48.07-.96.1-1.44.1-.77,0-1.46-.09-2.09-.27s-1.13-.48-1.51-.91c-.38-.43-.58-.91-.59-1.46-.01-.54.1-1.17.33-1.89.06-.17.16-.45.31-.82l1.31-3.31c.46-1.21.96-2.56,1.5-4.03.33-.9.63-1.76.89-2.56,1.2.02,2.22.03,3.06.03s1.8-.01,2.84-.03l-2.26,5.55c-.34.84-.57,1.42-.67,1.73-.1.3-.17.51-.21.62-.33,1.02-.35,1.71-.05,2.07.3.36.73.54,1.31.54.24,0,.48-.03.73-.1.25-.07.51-.16.77-.29.22-.12.44-.26.65-.44.22-.18.44-.41.65-.67.26-.32.49-.66.69-1.04.27-.52.57-1.17.88-1.95.22-.57.6-1.56,1.12-2.97l1.1-3.04c1.24.02,2.27.03,3.07.03.9,0,1.81-.01,2.73-.03-1.02,2.47-1.96,4.81-2.81,7.04-.85,2.22-1.79,4.84-2.84,7.84Z"/>
    <path class="cls-1" d="M220.42,152.13l2.55-6.47,1.35-3.71c.23-.67.45-1.35.68-2.05.23-.71.51-1.59.83-2.64,1.17.02,2.1.03,2.79.03.81,0,1.74-.01,2.79-.03l-.6,1.65c.52-.43.93-.75,1.24-.95.31-.21.65-.4,1.01-.57.37-.17.73-.3,1.1-.38.37-.08.74-.12,1.11-.12.35,0,.72.05,1.12.14-.33,1.06-.6,1.93-.78,2.62l-.63,2.24c-.48-.16-.96-.23-1.42-.23-.58,0-1.11.09-1.59.26-.48.17-.94.43-1.37.77s-.84.77-1.2,1.29c-.36.51-.76,1.33-1.2,2.45s-.89,2.39-1.36,3.83c-.16.5-.35,1.13-.55,1.88-.94-.02-1.88-.03-2.83-.03s-1.96,0-3.04.03Z"/>
    <path class="cls-1" d="M238.08,141.5c.5-.96.83-1.62,1-1.99.17-.36.43-.93.79-1.71,3-.61,5.5-.92,7.51-.92,1.15,0,2.15.13,3.02.39.87.26,1.48.67,1.82,1.24.35.57.35,1.39,0,2.46-.18.54-.65,1.77-1.41,3.67-.76,1.9-1.69,4.4-2.77,7.49-.95-.02-1.89-.03-2.83-.03s-1.89,0-2.92.03c.48-1.07,1.34-3.27,2.59-6.61-.42.18-.76.3-.99.38s-.64.19-1.21.35c-.57.16-1.02.29-1.36.39s-.63.24-.9.41c-.27.17-.48.34-.63.51-.15.17-.26.37-.33.58-.11.33-.07.61.12.84.19.23.57.35,1.14.35.2,0,.43-.02.67-.05.24-.03.59-.12,1.04-.25-.52.75-1.21,1.84-2.07,3.28-.88.14-1.69.2-2.44.2-1.2,0-2.15-.17-2.84-.5-.69-.34-1.14-.87-1.33-1.62-.19-.75-.16-1.5.08-2.24.15-.46.37-.9.67-1.34s.69-.86,1.17-1.28c.47-.42.99-.77,1.54-1.07.55-.29,1.27-.57,2.14-.84.88-.26,1.96-.51,3.25-.74.53-.1,1.03-.2,1.49-.31.46-.11.79-.21,1-.29.2-.08.38-.18.53-.29.15-.11.27-.23.35-.35.09-.12.16-.25.2-.39.12-.37.06-.65-.19-.85-.25-.2-.67-.3-1.27-.3-1.67,0-3.89.47-6.65,1.41Z"/>
    <path class="cls-1" d="M267.72,152.13c-1.03-.02-1.89-.03-2.58-.03-.78,0-1.72,0-2.84.03l.68-1.85c-.5.37-.93.67-1.28.9-.35.23-.79.45-1.3.66-.51.21-1.04.38-1.59.49-.55.12-1.09.17-1.64.17-.93,0-1.75-.17-2.45-.51-.7-.34-1.23-.82-1.6-1.45-.37-.63-.56-1.37-.56-2.23,0-.86.15-1.75.45-2.67.43-1.31,1.1-2.59,2.02-3.85.92-1.25,1.92-2.24,2.98-2.96,1.07-.72,2.17-1.22,3.31-1.52,1.14-.3,2.32-.44,3.53-.44.81,0,1.72.07,2.76.22.45-1.16,1.03-2.77,1.73-4.85,1.19.02,2.16.03,2.92.03.98,0,1.97,0,2.98-.03-1.22,2.89-2.61,6.4-4.17,10.56-1.56,4.16-2.68,7.26-3.35,9.32ZM266.18,140.89c-.48-.12-.95-.17-1.4-.17-.94,0-1.81.18-2.59.55s-1.47.93-2.08,1.7c-.61.77-1.03,1.53-1.27,2.28-.18.56-.25,1.07-.19,1.52s.24.81.57,1.07c.33.26.74.39,1.25.39.53,0,1.07-.15,1.61-.45.54-.3,1.04-.74,1.51-1.32.47-.58.88-1.28,1.24-2.08.36-.8.81-1.97,1.35-3.49Z"/>
    <path class="cls-1" d="M286.84,147.73c-.32.58-1.02,1.99-2.1,4.23-1.2.22-2.19.37-2.98.44s-1.58.11-2.37.11c-1.15,0-2.19-.08-3.11-.24-.92-.16-1.66-.44-2.24-.85-.57-.41-1-.91-1.28-1.52-.28-.61-.4-1.33-.38-2.16.03-.84.18-1.69.47-2.58.4-1.24,1.05-2.46,1.93-3.65.88-1.19,1.82-2.12,2.82-2.79,1-.67,2.05-1.15,3.16-1.43s2.2-.42,3.27-.42,2.12.13,3.04.39c.92.26,1.63.71,2.12,1.35s.75,1.36.79,2.17c.03.81-.1,1.68-.4,2.61-.18.55-.44,1.17-.79,1.85h-10.21c-.06.17-.11.31-.15.43-.34,1.04-.22,1.81.37,2.31.59.49,1.42.74,2.5.74.64,0,1.4-.07,2.26-.23.87-.15,1.96-.41,3.29-.77ZM279.41,143.03h4.81c.06-.17.11-.31.15-.42.16-.5.21-.94.15-1.3-.06-.36-.24-.62-.52-.79-.28-.16-.63-.25-1.05-.25-.29,0-.59.05-.89.14-.3.09-.59.23-.87.41-.28.18-.53.39-.75.62-.22.23-.4.46-.54.68-.14.22-.3.52-.5.91Z"/>
    <path class="cls-1" d="M288.63,152.13l2.55-6.47,1.35-3.71c.23-.67.45-1.35.68-2.05.23-.71.51-1.59.83-2.64,1.17.02,2.1.03,2.79.03.81,0,1.74-.01,2.79-.03l-.6,1.65c.52-.43.93-.75,1.24-.95.31-.21.65-.4,1.01-.57.37-.17.73-.3,1.1-.38.37-.08.73-.12,1.1-.12.35,0,.72.05,1.12.14-.33,1.06-.6,1.93-.78,2.62l-.63,2.24c-.48-.16-.96-.23-1.42-.23-.58,0-1.11.09-1.59.26-.48.17-.94.43-1.37.77s-.84.77-1.2,1.29c-.36.51-.76,1.33-1.2,2.45-.44,1.12-.89,2.39-1.36,3.83-.16.5-.35,1.13-.55,1.88-.94-.02-1.88-.03-2.83-.03s-1.96,0-3.04.03Z"/>
    <path class="cls-1" d="M306.29,141.5c.5-.96.83-1.62,1-1.99.16-.36.43-.93.79-1.71,3-.61,5.5-.92,7.51-.92,1.15,0,2.15.13,3.02.39.87.26,1.47.67,1.82,1.24.35.57.35,1.39,0,2.46-.18.54-.65,1.77-1.41,3.67-.76,1.9-1.69,4.4-2.76,7.49-.95-.02-1.89-.03-2.83-.03s-1.89,0-2.93.03c.48-1.07,1.34-3.27,2.59-6.61-.42.18-.76.3-.99.38s-.64.19-1.21.35c-.57.16-1.02.29-1.35.39s-.63.24-.9.41c-.27.17-.48.34-.63.51-.15.17-.26.37-.33.58-.11.33-.07.61.12.84.19.23.57.35,1.14.35.2,0,.43-.02.67-.05.25-.03.59-.12,1.04-.25-.52.75-1.21,1.84-2.07,3.28-.88.14-1.69.2-2.44.2-1.2,0-2.15-.17-2.84-.5-.69-.34-1.14-.87-1.33-1.62-.19-.75-.16-1.5.08-2.24.15-.46.37-.9.67-1.34s.69-.86,1.17-1.28c.47-.42.99-.77,1.54-1.07.55-.29,1.27-.57,2.14-.84.88-.26,1.96-.51,3.25-.74.53-.1,1.03-.2,1.49-.31.46-.11.79-.21,1-.29.21-.08.38-.18.53-.29.15-.11.27-.23.35-.35.09-.12.16-.25.2-.39.12-.37.06-.65-.19-.85-.25-.2-.67-.3-1.27-.3-1.67,0-3.89.47-6.65,1.41Z"/>
    <path class="cls-1" d="M327.21,152.13c3.09-7.8,5.32-13.8,6.69-18l.6-1.88c1.7.02,2.83.03,3.4.03.26,0,1.31,0,3.14-.03-.88,2.18-1.7,4.25-2.44,6.21-1.02,2.72-1.94,5.26-2.77,7.63-.83,2.36-1.51,4.38-2.06,6.05l-2.98-.03c-.58,0-1.78,0-3.59.03Z"/>
    <path class="cls-1" d="M337.03,152.13c1-2.2,2-4.64,3.02-7.3s1.92-5.19,2.73-7.57c1.16.02,2.16.03,3.01.03.98,0,1.93-.01,2.84-.03l-.79,1.98c.43-.36.81-.64,1.1-.85.3-.21.66-.41,1.07-.61.41-.2.83-.36,1.26-.49.43-.13.89-.23,1.37-.3.48-.07.98-.11,1.48-.11.7,0,1.36.07,1.97.23.62.15,1.1.36,1.46.64.36.28.62.62.79,1.03.17.41.22.86.16,1.33-.06.47-.17.97-.33,1.47-.12.37-.42,1.17-.89,2.39l-1.96,5.27c-.39,1.04-.73,2-1.01,2.88-.97-.02-1.89-.03-2.74-.03-1.15,0-2.21,0-3.17.03.37-.88.89-2.2,1.56-3.94.66-1.74,1.11-2.97,1.34-3.68.36-1.1.39-1.86.11-2.3-.28-.43-.74-.65-1.39-.65-.56,0-1.15.18-1.78.55-.62.37-1.18.91-1.68,1.61s-1.07,1.86-1.71,3.47c-.64,1.61-1.24,3.25-1.83,4.92-.96-.02-1.91-.03-2.83-.03-.97,0-2.02,0-3.17.03Z"/>
    <path class="cls-1" d="M373.86,152.13c-1.04-.02-1.9-.03-2.58-.03-.78,0-1.72,0-2.84.03l.69-1.85c-.5.37-.93.67-1.28.9-.36.23-.79.45-1.3.66-.51.21-1.04.38-1.59.49-.55.12-1.09.17-1.64.17-.93,0-1.75-.17-2.45-.51-.7-.34-1.23-.82-1.6-1.45-.37-.63-.56-1.37-.56-2.23,0-.86.15-1.75.45-2.67.43-1.31,1.1-2.59,2.02-3.85.92-1.25,1.91-2.24,2.98-2.96,1.07-.72,2.17-1.22,3.31-1.52,1.14-.3,2.32-.44,3.53-.44.81,0,1.72.07,2.76.22.45-1.16,1.03-2.77,1.73-4.85,1.19.02,2.16.03,2.92.03.98,0,1.97,0,2.98-.03-1.22,2.89-2.61,6.4-4.17,10.56-1.56,4.16-2.68,7.26-3.35,9.32ZM372.32,140.89c-.48-.12-.95-.17-1.4-.17-.94,0-1.81.18-2.59.55s-1.47.93-2.08,1.7c-.61.77-1.03,1.53-1.27,2.28-.18.56-.25,1.07-.19,1.52.05.45.24.81.57,1.07.33.26.74.39,1.25.39.53,0,1.07-.15,1.61-.45s1.04-.74,1.51-1.32c.47-.58.88-1.28,1.24-2.08.36-.8.81-1.97,1.35-3.49Z"/>
    <path class="cls-1" d="M377.28,152.13c.5-1.3,1.14-3.06,1.92-5.27l2.99.04c.32,0,1.17-.02,2.55-.04-.42,1.06-1.08,2.82-1.97,5.27l-2.53-.03c-.19,0-1.17,0-2.95.03Z"/>
    <path class="cls-1" d="M390.95,152.13l1.89-2.1,12.15-14.19,1.32-1.59c.38-.47.93-1.14,1.63-2.01,1.7.02,2.95.03,3.73.03,1.37,0,2.64,0,3.81-.03l.15,6.07.53,11.68.15,2.13c-1.68-.02-2.69-.03-3.05-.03-.82,0-2.02,0-3.61.03.09-1.6.09-3.49-.01-5.65h-7.33c-1.4,1.71-2.88,3.59-4.45,5.65-1.8-.02-2.91-.03-3.32-.03-.74,0-1.94,0-3.58.03ZM405.45,142.24h4.52c-.01-3.42-.01-5.31-.01-5.66-1.1,1.43-2.02,2.59-2.77,3.51l-1.75,2.15Z"/>
    <path class="cls-1" d="M417.65,152.13l2.55-6.47,1.35-3.71c.23-.67.46-1.35.68-2.05.23-.71.51-1.59.83-2.64,1.17.02,2.1.03,2.79.03.81,0,1.74-.01,2.79-.03l-.6,1.65c.52-.43.93-.75,1.24-.95.31-.21.65-.4,1.01-.57.37-.17.73-.3,1.1-.38.37-.08.73-.12,1.1-.12.35,0,.72.05,1.12.14-.33,1.06-.6,1.93-.78,2.62l-.63,2.24c-.48-.16-.96-.23-1.42-.23-.58,0-1.11.09-1.59.26-.48.17-.94.43-1.37.77-.44.34-.84.77-1.2,1.29-.36.51-.76,1.33-1.2,2.45s-.89,2.39-1.36,3.83c-.16.5-.35,1.13-.55,1.88-.94-.02-1.88-.03-2.83-.03s-1.96,0-3.04.03Z"/>
    <path class="cls-1" d="M431.06,153.94c1.12.43,2.12.72,3.02.89.89.17,1.7.25,2.41.25.51,0,1-.06,1.45-.17.46-.11.83-.25,1.14-.41.31-.17.59-.37.85-.63.26-.25.49-.53.69-.84.2-.31.38-.67.55-1.08.17-.41.39-.97.65-1.69-.49.34-.9.61-1.25.81-.34.2-.75.4-1.22.59-.47.19-.96.34-1.48.44-.51.1-1.04.15-1.57.15-1.23,0-2.25-.29-3.06-.86-.8-.57-1.28-1.37-1.43-2.4-.15-1.03-.03-2.14.36-3.34.46-1.41,1.13-2.68,2.03-3.82.89-1.14,1.96-2.1,3.19-2.89,1.23-.79,2.48-1.33,3.74-1.63,1.26-.3,2.63-.45,4.11-.45.84,0,1.79.05,2.82.15,1.04.1,2.44.32,4.2.66l-1.91,4.81-2.01,5.27c-.14.38-.25.69-.33.93l-1.65,4.73c-.22.6-.47,1.17-.78,1.72-.27.5-.6.96-.99,1.38-.39.43-.83.8-1.3,1.12-.52.35-1.07.63-1.64.83-.58.21-1.25.39-1.99.52-.8.14-1.61.2-2.44.2-.47,0-1.03-.02-1.7-.07-.67-.04-1.34-.11-2.03-.2-.69-.09-1.27-.18-1.76-.28-.49-.1-1.1-.24-1.84-.42l.52-1.92c.11-.37.32-1.17.63-2.4ZM445.15,141.34c-.56-.12-1.08-.17-1.56-.17-.87,0-1.68.17-2.42.5-.74.34-1.4.84-1.96,1.5s-.97,1.36-1.2,2.08c-.17.53-.24,1.01-.2,1.46.04.45.23.8.57,1.06.34.26.75.39,1.23.39.7,0,1.4-.25,2.11-.76.71-.51,1.3-1.2,1.79-2.07.49-.88,1.04-2.2,1.64-3.99Z"/>
    <path class="cls-1" d="M450.29,152.13c.5-1.3,1.14-3.06,1.92-5.27l2.99.04c.32,0,1.17-.02,2.55-.04-.42,1.06-1.08,2.82-1.98,5.27l-2.52-.03c-.19,0-1.17,0-2.95.03Z"/>
  </g>
  <g>
    <path class="cls-2" d="M555.84,67.1c5.43,9.02,10.71,17.92,12.66,28.32,1,5.33,1.31,10.72-.09,16.02-1.72,6.57-8.09,11.12-14.83,10.86-7.43-.29-13.43-5.19-14.79-12.08-.9-4.54.39-8.68,2.32-12.68,1.7-3.52,3.91-6.75,5.98-10.05,3.84-6.14,7.02-12.57,8.53-19.73.03-.15.1-.3.22-.64ZM565.66,106.92c-1.91,3.19-5.07,4.38-8.26,5.53-.26.09-.5.23-.74.37-1.95,1.11-2.2,3.2-.57,4.76,1.56,1.49,4.13,1.47,5.87-.03,3.23-2.8,3.58-6.64,3.71-10.62Z"/>
    <path class="cls-2" d="M569.58,53.42c3.91,4.84,7.39,9.66,7.37,16.08-.01,3.72-3.06,6.36-6.9,6.03-3.42-.29-5.9-3.56-5.35-7.03.16-.99.39-1.95.79-2.87.85-1.97,1.75-3.92,2.58-5.9.81-1.95,1.23-4.02,1.52-6.31Z"/>
    <path class="cls-2" d="M546.06,43.64c3.74,4.67,6.98,9.14,7.4,15.04.23,3.19-1.17,5.76-3.91,6.8-2.64,1.01-5.58.15-7.23-2.1-1.34-1.82-1.41-3.84-.82-5.92.24-.84.53-1.67.9-2.46,1.62-3.53,3.36-7.02,3.66-11.35Z"/>
    <path class="cls-2" d="M564.61,18.19c2.31,3.91,4.42,7.61,5.08,11.92.28,1.86.33,3.74-.07,5.59-.71,3.28-3.8,5.23-7.25,4.6-3.14-.58-5.31-3.73-4.79-6.93.29-1.77,1.11-3.31,2.06-4.79,2.06-3.18,4.12-6.35,4.97-10.39Z"/>
  </g>
</svg>